# xmcd CD database file
#
# Track frame offsets:
#	150
#	15998
#	38850
#	56747
#	68183
#	91916
#	103513
#	121007
#	144460
#	156101
#	179832
#
# Disc length: 2872 seconds
#
# Revision: 0
# Processed by: cddbd v1.5.2PL0 Copyright (c) Steve Scherf et al.
# Submitted via: CDex 1.51
#
DISCID=8d0b360b
DTITLE=Chuck Deely - Streetwise
DYEAR=2007
DGENRE=Blues
TTITLE0=Stop
TTITLE1=The Other Side
TTITLE2=Same Old Song
TTITLE3=Heatwave
TTITLE4=One Hallelujah
TTITLE5=Father And Son
TTITLE6=Woman of the World
TTITLE7=I Just Don't Know
TTITLE8=Excerpt From "Via Cruges"
TTITLE9=No Woman No Cry
TTITLE10=Slideshow
EXTD=YEAR: 2007
EXTT0=
EXTT1=
EXTT2=
EXTT3=
EXTT4=
EXTT5=
EXTT6=
EXTT7=
EXTT8=
EXTT9=
EXTT10=
PLAYORDER=
